<svg xmlns="http://www.w3.org/2000/svg" xmlns:xlink="http://www.w3.org/1999/xlink" xmlns:a="http://ns.adobe.com/AdobeSVGViewerExtensions/3.0/" version="1.1" baseProfile="tiny" x="0px" y="0px" width="57px" height="60px" viewBox="-0.77 -0.96 57 60" overflow="visible" xml:space="preserve">
<defs>
</defs>
<path fill="#932A61" d="M43.36,14.53v37.39H12.58V36.49c-0.1-0.67-0.16-1.36-0.16-2.06l0.36-18.56C13.57,8.64,18.57,1.78,27.89,0  c4.27,0,8.14,1.63,10.93,4.26C41.63,6.89,43.36,10.52,43.36,14.53z"/>
<path fill="#932A61" d="M2.08,24.32c1.6-1.65,10.68-7.51,10.68-7.51l1.3,9.46l-7.22,4.2c-1.53,1.14-3.7,1.66-5.39,0.48  c-0.61-0.69-1.31-1.52-1.44-2.64C-0.09,27.41,0.48,25.97,2.08,24.32z"/>
<path fill="#932A61" d="M53.92,23.19c-1.64-1.61-10.84-7.27-10.84-7.27l-1.1,9.48l7.31,4.04c1.55,1.11,3.74,1.58,5.4,0.37  c0.6-0.7,1.28-1.55,1.39-2.67C56.16,26.23,55.55,24.8,53.92,23.19z"/>
<path fill="none" stroke="#932A61" stroke-miterlimit="10" d="M14.22,57.65c-0.03,0.3-3.14-6.87-0.16-8.21  c2.98-1.33,11.96,3.94,11.72,4.1c-0.24,0.16-3.76-0.78-4.05-0.1c-0.29,0.67,0.26,2.81,0.42,3.94s-4.09-2.47-5.23-2.4  C15.78,55.05,14.27,57.18,14.22,57.65z"/>
<path fill="none" stroke="#932A61" stroke-miterlimit="10" d="M38.3,58.15c-0.03,0.3-3.14-6.87-0.16-8.21  c2.98-1.34,11.96,3.94,11.72,4.1c-0.24,0.16-3.76-0.78-4.05-0.11c-0.29,0.67,0.26,2.81,0.42,3.94c0.16,1.13-4.08-2.47-5.23-2.4  C39.85,55.55,38.34,57.68,38.3,58.15z"/>
<circle fill="#F0EBD8" cx="24.49" cy="7.64" r="3.08"/>
<circle fill="#932A61" cx="24.49" cy="7.64" r="0.85"/>
<circle fill="#F0EBD8" cx="34.77" cy="5.19" r="2.67"/>
<circle fill="#932A61" cx="34.77" cy="5.19" r="0.85"/>






<polygon fill="#932A61" points="35.84,30 26.87,30.16 26.86,29.91 35.84,29.77 "/>
<polygon fill="#932A61" points="35.58,35.33 26.61,35.49 26.6,34.99 35.58,34.86 "/>


<path fill="#F0EBD8" stroke="#932A61" stroke-miterlimit="10" d="M43.78,24.46c-12.17,4.82-19.19,4.05-31.37-0.77  c0-3.63,0-4.77-0.31-8.59c10.07,3.99,21.28,3.99,31.35,0C43.39,18.22,43.62,20.72,43.78,24.46z"/>




</svg>
